<svg width="28" height="12" viewBox="0 0 28 12" fill="none" xmlns="http://www.w3.org/2000/svg">
<path d="M8 3.5L10.5 7.5M13 11.5L10.5 7.5M10.5 7.5L13 3.5M10.5 7.5L8 11.5" stroke="black"/>
<path d="M1 11.5V4.5C1 3.94772 1.44772 3.5 2 3.5H6" stroke="black"/>
<path d="M15 9.5V10.5C15 11.0523 15.4477 11.5 16 11.5H19C19.5523 11.5 20 11.0523 20 10.5V7.5L20 3.5C19.1667 5.16667 17 7.5 15 3.5" stroke="black"/>
<path d="M22 12L22 7.75M22 7.75V5C22 4.44772 22.4477 4 23 4H26C26.5523 4 27 4.44772 27 5V6.75C27 7.30228 26.5523 7.75 26 7.75H22Z" stroke="black"/>
<path d="M22.5 1H24.5M26.5 1H24.5M24.5 1V3" stroke="black"/>
<path d="M8.5 2H12.5" stroke="black"/>
<circle cx="16.5" cy="2.5" r="0.5" fill="black"/>
<path d="M19 2.5C19 2.77614 18.7761 3 18.5 3C18.2239 3 18 2.77614 18 2.5C18 2.22386 18.2239 2 18.5 2C18.7761 2 19 2.22386 19 2.5Z" fill="black"/>
<circle cx="2.5" cy="0.5" r="0.5" fill="black"/>
<circle cx="4.5" cy="0.5" r="0.5" fill="black"/>
<path d="M1.5 2H5.5" stroke="black"/>
</svg>
