<svg width="512" height="512" viewBox="0 0 512 512" fill="none" xmlns="http://www.w3.org/2000/svg">
<rect x="16" y="16" width="480" height="480" rx="48" stroke="white" stroke-width="32"/>
<path d="M142.592 362.072C120.064 362.072 103.083 358.744 91.648 352.088C80.2133 345.261 74.496 333.656 74.496 317.272C74.496 306.861 77.056 298.413 82.176 291.928C87.4667 285.443 94.72 280.749 103.936 277.848C113.152 274.776 123.648 273.24 135.424 273.24C141.227 273.24 146.517 273.581 151.296 274.264C156.075 274.947 160.597 275.8 164.864 276.824V303.192C162.304 302.339 158.891 301.571 154.624 300.888C150.357 300.205 146.261 299.864 142.336 299.864C133.291 299.864 126.549 301.144 122.112 303.704C117.845 306.264 115.712 310.531 115.712 316.504C115.712 322.477 117.845 326.659 122.112 329.048C126.549 331.437 132.779 332.632 140.8 332.632C146.091 332.632 151.211 332.12 156.16 331.096C161.109 329.901 165.291 327.939 168.704 325.208L163.584 337.752C162.389 335.021 161.451 332.547 160.768 330.328C160.085 328.109 159.573 325.805 159.232 323.416C158.891 320.856 158.635 317.869 158.464 314.456C158.464 310.872 158.464 306.435 158.464 301.144V274.264C158.464 267.267 157.269 261.891 154.88 258.136C152.491 254.381 148.821 251.907 143.872 250.712C139.093 249.347 133.035 248.664 125.696 248.664C118.357 248.664 111.36 249.347 104.704 250.712C98.2187 251.907 92.928 253.443 88.832 255.32H86.272V221.016C92.416 219.309 99.2427 217.944 106.752 216.92C114.432 215.725 122.539 215.128 131.072 215.128C141.483 215.128 151.04 216.067 159.744 217.944C168.448 219.821 175.957 223.064 182.272 227.672C188.757 232.109 193.707 238.339 197.12 246.36C200.533 254.211 202.24 264.365 202.24 276.824V307.8C202.24 311.384 202.325 315.821 202.496 321.112C202.667 326.403 202.923 331.608 203.264 336.728C203.605 341.848 204.203 345.944 205.056 349.016L204.032 351.064C198.059 353.283 191.744 355.245 185.088 356.952C178.432 358.488 171.52 359.683 164.352 360.536C157.184 361.56 149.931 362.072 142.592 362.072ZM166.912 201.304C161.963 201.304 157.781 199.768 154.368 196.696C151.125 193.624 149.504 189.357 149.504 183.896C149.504 178.435 151.125 174.168 154.368 171.096C157.781 168.024 161.963 166.488 166.912 166.488C172.032 166.488 176.213 168.024 179.456 171.096C182.699 174.168 184.32 178.435 184.32 183.896C184.32 189.357 182.699 193.624 179.456 196.696C176.213 199.768 172.032 201.304 166.912 201.304ZM116.736 201.304C111.787 201.304 107.605 199.768 104.192 196.696C100.949 193.624 99.328 189.357 99.328 183.896C99.328 178.435 100.949 174.168 104.192 171.096C107.605 168.024 111.787 166.488 116.736 166.488C121.856 166.488 126.037 168.024 129.28 171.096C132.523 174.168 134.144 178.435 134.144 183.896C134.144 189.357 132.523 193.624 129.28 196.696C126.037 199.768 121.856 201.304 116.736 201.304ZM258.472 359L218.536 222.04V218.968H266.664L292.52 331.864L283.304 331.608L316.84 218.968H348.584L382.376 332.12L372.904 332.376L399.528 218.968H447.4V222.04L405.672 359H354.984L326.312 263.768H336.808L308.136 359H258.472Z" fill="white"/>
</svg>
