<svg width="512" height="512" viewBox="0 0 512 512" fill="none" xmlns="http://www.w3.org/2000/svg">
<rect x="16" y="16" width="480" height="480" rx="48" stroke="white" stroke-width="32"/>
<path d="M186.967 362.072C164.439 362.072 147.458 358.744 136.023 352.088C124.588 345.261 118.871 333.656 118.871 317.272C118.871 306.861 121.431 298.413 126.551 291.928C131.842 285.443 139.095 280.749 148.311 277.848C157.527 274.776 168.023 273.24 179.799 273.24C185.602 273.24 190.892 273.581 195.671 274.264C200.45 274.947 204.972 275.8 209.239 276.824V303.192C206.679 302.339 203.266 301.571 198.999 300.888C194.732 300.205 190.636 299.864 186.711 299.864C177.666 299.864 170.924 301.144 166.487 303.704C162.22 306.264 160.087 310.531 160.087 316.504C160.087 322.477 162.22 326.659 166.487 329.048C170.924 331.437 177.154 332.632 185.175 332.632C190.466 332.632 195.586 332.12 200.535 331.096C205.484 329.901 209.666 327.939 213.079 325.208L207.959 337.752C206.764 335.021 205.826 332.547 205.143 330.328C204.46 328.109 203.948 325.805 203.607 323.416C203.266 320.856 203.01 317.869 202.839 314.456C202.839 310.872 202.839 306.435 202.839 301.144V274.264C202.839 267.267 201.644 261.891 199.255 258.136C196.866 254.381 193.196 251.907 188.247 250.712C183.468 249.347 177.41 248.664 170.071 248.664C162.732 248.664 155.735 249.347 149.079 250.712C142.594 251.907 137.303 253.443 133.207 255.32H130.647V221.016C136.791 219.309 143.618 217.944 151.127 216.92C158.807 215.725 166.914 215.128 175.447 215.128C185.858 215.128 195.415 216.067 204.119 217.944C212.823 219.821 220.332 223.064 226.647 227.672C233.132 232.109 238.082 238.339 241.495 246.36C244.908 254.211 246.615 264.365 246.615 276.824V307.8C246.615 311.384 246.7 315.821 246.871 321.112C247.042 326.403 247.298 331.608 247.639 336.728C247.98 341.848 248.578 345.944 249.431 349.016L248.407 351.064C242.434 353.283 236.119 355.245 229.463 356.952C222.807 358.488 215.895 359.683 208.727 360.536C201.559 361.56 194.306 362.072 186.967 362.072ZM211.287 201.304C206.338 201.304 202.156 199.768 198.743 196.696C195.5 193.624 193.879 189.357 193.879 183.896C193.879 178.435 195.5 174.168 198.743 171.096C202.156 168.024 206.338 166.488 211.287 166.488C216.407 166.488 220.588 168.024 223.831 171.096C227.074 174.168 228.695 178.435 228.695 183.896C228.695 189.357 227.074 193.624 223.831 196.696C220.588 199.768 216.407 201.304 211.287 201.304ZM161.111 201.304C156.162 201.304 151.98 199.768 148.567 196.696C145.324 193.624 143.703 189.357 143.703 183.896C143.703 178.435 145.324 174.168 148.567 171.096C151.98 168.024 156.162 166.488 161.111 166.488C166.231 166.488 170.412 168.024 173.655 171.096C176.898 174.168 178.519 178.435 178.519 183.896C178.519 189.357 176.898 193.624 173.655 196.696C170.412 199.768 166.231 201.304 161.111 201.304ZM276.687 317.784H278.735C284.879 320.344 292.303 322.648 301.007 324.696C309.711 326.744 318.415 327.768 327.119 327.768C330.532 327.768 333.69 327.683 336.591 327.512C339.492 327.171 341.967 326.659 344.015 325.976C346.234 325.293 347.94 324.184 349.135 322.648C350.33 321.112 350.927 319.064 350.927 316.504C350.927 312.749 349.306 310.189 346.063 308.824C342.991 307.459 337.53 306.093 329.679 304.728L318.159 302.68C305.188 300.291 294.863 296.109 287.183 290.136C279.674 284.163 275.919 275.032 275.919 262.744C275.919 253.869 278.308 245.933 283.087 238.936C287.866 231.768 295.375 226.221 305.615 222.296C315.855 218.2 329.082 216.152 345.295 216.152C352.975 216.152 359.972 216.579 366.287 217.432C372.772 218.285 379.258 219.651 385.743 221.528V257.112H383.695C376.698 254.381 369.871 252.504 363.215 251.48C356.559 250.285 350.244 249.688 344.271 249.688C336.42 249.688 330.276 250.541 325.839 252.248C321.402 253.784 319.183 256.685 319.183 260.952C319.183 264.195 320.89 266.499 324.303 267.864C327.887 269.229 333.007 270.509 339.663 271.704L351.439 273.752C359.46 275.117 366.714 277.336 373.199 280.408C379.855 283.48 385.146 287.832 389.071 293.464C392.996 298.925 394.959 306.008 394.959 314.712C394.959 330.413 389.071 342.104 377.295 349.784C365.69 357.293 348.111 361.048 324.559 361.048C316.538 361.048 308.26 360.365 299.727 359C291.194 357.635 283.514 355.928 276.687 353.88V317.784ZM316.879 204.376L290.255 165.464V164.44H316.111L333.519 184.92L350.927 164.44H376.783V165.464L350.159 204.376H316.879Z" fill="white"/>
</svg>
