<svg width="512" height="512" viewBox="0 0 512 512" fill="none" xmlns="http://www.w3.org/2000/svg">
<rect x="16" y="16" width="480" height="480" rx="48" stroke="white" stroke-width="32"/>
<path d="M190.842 362.072C168.314 362.072 151.333 358.744 139.898 352.088C128.463 345.261 122.746 333.656 122.746 317.272C122.746 306.861 125.306 298.413 130.426 291.928C135.717 285.443 142.97 280.749 152.186 277.848C161.402 274.776 171.898 273.24 183.674 273.24C189.477 273.24 194.767 273.581 199.546 274.264C204.325 274.947 208.847 275.8 213.114 276.824V303.192C210.554 302.339 207.141 301.571 202.874 300.888C198.607 300.205 194.511 299.864 190.586 299.864C181.541 299.864 174.799 301.144 170.362 303.704C166.095 306.264 163.962 310.531 163.962 316.504C163.962 322.477 166.095 326.659 170.362 329.048C174.799 331.437 181.029 332.632 189.05 332.632C194.341 332.632 199.461 332.12 204.41 331.096C209.359 329.901 213.541 327.939 216.954 325.208L211.834 337.752C210.639 335.021 209.701 332.547 209.018 330.328C208.335 328.109 207.823 325.805 207.482 323.416C207.141 320.856 206.885 317.869 206.714 314.456C206.714 310.872 206.714 306.435 206.714 301.144V274.264C206.714 267.267 205.519 261.891 203.13 258.136C200.741 254.381 197.071 251.907 192.122 250.712C187.343 249.347 181.285 248.664 173.946 248.664C166.607 248.664 159.61 249.347 152.954 250.712C146.469 251.907 141.178 253.443 137.082 255.32H134.522V221.016C140.666 219.309 147.493 217.944 155.002 216.92C162.682 215.725 170.789 215.128 179.322 215.128C189.733 215.128 199.29 216.067 207.994 217.944C216.698 219.821 224.207 223.064 230.522 227.672C237.007 232.109 241.957 238.339 245.37 246.36C248.783 254.211 250.49 264.365 250.49 276.824V307.8C250.49 311.384 250.575 315.821 250.746 321.112C250.917 326.403 251.173 331.608 251.514 336.728C251.855 341.848 252.453 345.944 253.306 349.016L252.282 351.064C246.309 353.283 239.994 355.245 233.338 356.952C226.682 358.488 219.77 359.683 212.602 360.536C205.434 361.56 198.181 362.072 190.842 362.072ZM278.514 288.6C278.514 271.533 282.013 257.624 289.01 246.872C296.007 235.949 305.565 227.928 317.682 222.808C329.97 217.688 343.965 215.128 359.666 215.128C371.613 215.128 381.938 216.664 390.642 219.736V255.576H387.826C384.925 254.211 381.597 253.101 377.842 252.248C374.087 251.224 369.65 250.712 364.53 250.712C351.73 250.712 341.831 253.955 334.834 260.44C327.837 266.755 324.338 276.141 324.338 288.6C324.338 300.888 327.837 310.275 334.834 316.76C341.831 323.075 351.73 326.232 364.53 326.232C369.65 326.232 374.087 325.805 377.842 324.952C381.597 323.928 384.925 322.819 387.826 321.624H390.642V357.208C381.938 360.28 371.613 361.816 359.666 361.816C343.623 361.816 329.458 359.256 317.17 354.136C305.053 349.016 295.581 341.08 288.754 330.328C281.927 319.405 278.514 305.496 278.514 288.6ZM344.818 352.856V367.704C353.693 368.728 360.519 371.715 365.298 376.664C370.077 381.613 372.466 387.672 372.466 394.84C372.466 401.496 370.759 406.872 367.346 410.968C363.933 415.064 359.41 418.051 353.778 419.928C348.317 421.805 342.343 422.744 335.858 422.744C331.591 422.744 327.666 422.488 324.082 421.976C320.669 421.464 317.426 420.696 314.354 419.672V400.472H315.378C318.45 401.496 321.351 402.264 324.082 402.776C326.813 403.288 330.055 403.544 333.81 403.544C339.271 403.544 343.026 402.605 345.074 400.728C347.293 399.021 348.402 396.717 348.402 393.816C348.402 390.232 346.439 387.416 342.514 385.368C338.589 383.491 332.701 382.552 324.85 382.552V352.856H344.818Z" fill="white"/>
</svg>
