<svg width="512" height="512" viewBox="0 0 512 512" fill="none" xmlns="http://www.w3.org/2000/svg">
<rect x="16" y="16" width="480" height="480" rx="48" stroke="white" stroke-width="32"/>
<path d="M114.306 359L111.746 356.184C111.063 352.6 110.722 349.443 110.722 346.712C110.722 342.445 111.405 338.52 112.77 334.936C114.306 331.181 116.183 327.683 118.402 324.44C120.791 321.197 123.181 318.125 125.57 315.224L167.554 268.12C169.602 265.56 171.735 262.915 173.954 260.184C176.343 257.283 178.135 254.552 179.33 251.992C180.695 249.432 180.951 247.128 180.098 245.08L196.994 253.784H112.77V218.968H232.322L234.626 222.04C235.479 225.453 235.906 228.525 235.906 231.256C235.906 235.523 235.138 239.533 233.602 243.288C232.237 246.872 230.445 250.371 228.226 253.784C226.007 257.027 223.618 260.013 221.058 262.744L179.074 309.848C176.855 312.408 174.637 315.139 172.418 318.04C170.199 320.941 168.493 323.587 167.298 325.976C166.103 328.195 166.103 329.987 167.298 331.352L149.634 324.44H238.466V359H114.306ZM255.014 288.6C255.014 272.045 258.086 258.392 264.23 247.64C270.374 236.717 278.822 228.611 289.574 223.32C300.497 217.859 313.041 215.128 327.206 215.128C341.201 215.128 353.659 217.859 364.582 223.32C375.505 228.611 384.038 236.717 390.182 247.64C396.326 258.392 399.398 272.045 399.398 288.6C399.398 304.984 396.326 318.637 390.182 329.56C384.038 340.312 375.505 348.419 364.582 353.88C353.659 359.171 341.201 361.816 327.206 361.816C313.041 361.816 300.497 359.171 289.574 353.88C278.651 348.419 270.118 340.312 263.974 329.56C258.001 318.637 255.014 304.984 255.014 288.6ZM300.838 288.6C300.838 301.912 302.971 311.981 307.238 318.808C311.675 325.635 318.331 329.048 327.206 329.048C336.081 329.048 342.651 325.635 346.918 318.808C351.355 311.981 353.574 301.912 353.574 288.6C353.574 275.117 351.355 264.963 346.918 258.136C342.651 251.309 336.081 247.896 327.206 247.896C318.331 247.896 311.675 251.309 307.238 258.136C302.971 264.963 300.838 275.117 300.838 288.6ZM352.294 201.304C347.345 201.304 343.163 199.768 339.75 196.696C336.507 193.624 334.886 189.357 334.886 183.896C334.886 178.435 336.507 174.168 339.75 171.096C343.163 168.024 347.345 166.488 352.294 166.488C357.414 166.488 361.595 168.024 364.838 171.096C368.081 174.168 369.702 178.435 369.702 183.896C369.702 189.357 368.081 193.624 364.838 196.696C361.595 199.768 357.414 201.304 352.294 201.304ZM302.118 201.304C297.169 201.304 292.987 199.768 289.574 196.696C286.331 193.624 284.71 189.357 284.71 183.896C284.71 178.435 286.331 174.168 289.574 171.096C292.987 168.024 297.169 166.488 302.118 166.488C307.238 166.488 311.419 168.024 314.662 171.096C317.905 174.168 319.526 178.435 319.526 183.896C319.526 189.357 317.905 193.624 314.662 196.696C311.419 199.768 307.238 201.304 302.118 201.304Z" fill="white"/>
</svg>
